<svg width="22" height="22" viewBox="0 0 22 22" fill="none" xmlns="http://www.w3.org/2000/svg">
<path d="M11.0002 20.1668C5.93741 20.1668 1.8335 16.0629 1.8335 11.0002C1.8335 5.93741 5.93741 1.8335 11.0002 1.8335C16.0629 1.8335 20.1668 5.93741 20.1668 11.0002C20.1668 16.0629 16.0629 20.1668 11.0002 20.1668ZM11.0002 18.3335C12.9451 18.3335 14.8103 17.5609 16.1856 16.1856C17.5609 14.8103 18.3335 12.9451 18.3335 11.0002C18.3335 9.05524 17.5609 7.18998 16.1856 5.81471C14.8103 4.43945 12.9451 3.66683 11.0002 3.66683C9.05524 3.66683 7.18998 4.43945 5.81471 5.81471C4.43945 7.18998 3.66683 9.05524 3.66683 11.0002C3.66683 12.9451 4.43945 14.8103 5.81471 16.1856C7.18998 17.5609 9.05524 18.3335 11.0002 18.3335ZM10.0862 14.6668L6.19683 10.7774L7.493 9.48125L10.0862 12.0745L15.2709 6.88891L16.568 8.18508L10.0862 14.6668Z" fill="#009245"/>
</svg>
