<svg width="29" height="24" viewBox="0 0 29 24" fill="none" xmlns="http://www.w3.org/2000/svg">
<path d="M14.387 14.6251C15.2282 14.6251 16.035 14.3485 16.6298 13.8562C17.2247 13.3639 17.5588 12.6963 17.5588 12.0001C17.5588 11.9232 17.5546 11.847 17.5467 11.7718L14.1111 14.615C14.202 14.6216 14.2938 14.6251 14.387 14.6251ZM24.8859 3.88038L23.676 2.88007C23.6336 2.84493 23.5759 2.8252 23.5159 2.8252C23.4558 2.8252 23.3982 2.84493 23.3557 2.88007L20.2598 5.44296C18.5519 4.72062 16.632 4.35944 14.5003 4.35944C9.05709 4.35944 4.99596 6.70554 2.31686 11.3977C2.20917 11.5864 2.15332 11.7925 2.15332 12.0012C2.15332 12.2099 2.20917 12.416 2.31686 12.6048C3.38736 14.4708 4.67641 15.9666 6.184 17.0919L3.18799 19.5704C3.14553 19.6055 3.12168 19.6532 3.12168 19.7029C3.12168 19.7526 3.14553 19.8003 3.18799 19.8355L4.39698 20.836C4.43947 20.8711 4.49707 20.8909 4.55713 20.8909C4.6172 20.8909 4.6748 20.8711 4.71729 20.836L24.8859 4.14569C24.9069 4.12828 24.9237 4.1076 24.9351 4.08484C24.9465 4.06208 24.9523 4.03768 24.9523 4.01304C24.9523 3.9884 24.9465 3.964 24.9351 3.94124C24.9237 3.91847 24.9069 3.8978 24.8859 3.88038ZM9.4026 12.0001C9.40252 11.2876 9.62543 10.5872 10.0496 9.96723C10.4738 9.34723 11.0848 8.82873 11.8231 8.46225C12.5614 8.09576 13.4018 7.89378 14.2625 7.87598C15.1231 7.85818 15.9747 8.02518 16.7342 8.36069L15.3572 9.50022C14.8019 9.35307 14.2084 9.33535 13.6417 9.449C13.075 9.56265 12.5571 9.80329 12.1448 10.1445C11.7325 10.4857 11.4418 10.9143 11.3044 11.3833C11.1671 11.8523 11.1885 12.3435 11.3663 12.803L9.9894 13.9426C9.60299 13.3451 9.40139 12.6777 9.4026 12.0001Z" fill="#8B8B8B"/>
<path d="M26.6834 11.3954C25.6866 9.65791 24.5 8.24111 23.1239 7.14502L19.0418 10.5235C19.3859 11.2679 19.4621 12.0789 19.2614 12.8584C19.0606 13.6379 18.5914 14.3526 17.9104 14.9162C17.2294 15.4798 16.3658 15.8681 15.4239 16.0343C14.482 16.2004 13.5021 16.1373 12.6026 15.8525L9.14014 18.718C10.7465 19.3331 12.5331 19.6407 14.5 19.6407C19.9432 19.6407 24.0043 17.2946 26.6834 12.6024C26.7911 12.4137 26.847 12.2076 26.847 11.9989C26.847 11.7902 26.7911 11.5841 26.6834 11.3954Z" fill="#8B8B8B"/>
</svg>
