<svg width="29" height="24" viewBox="0 0 29 24" fill="none" xmlns="http://www.w3.org/2000/svg">
<path d="M11.2149 12C11.2149 12.6962 11.549 13.3639 12.1439 13.8562C12.7387 14.3484 13.5455 14.625 14.3867 14.625C15.228 14.625 16.0347 14.3484 16.6296 13.8562C17.2244 13.3639 17.5586 12.6962 17.5586 12C17.5586 11.3038 17.2244 10.6361 16.6296 10.1438C16.0347 9.65156 15.228 9.375 14.3867 9.375C13.5455 9.375 12.7387 9.65156 12.1439 10.1438C11.549 10.6361 11.2149 11.3038 11.2149 12ZM26.6834 11.3953C23.9986 6.71484 19.9403 4.35938 14.5 4.35938C9.05685 4.35938 5.00138 6.71484 2.31661 11.3977C2.20893 11.5864 2.15308 11.7925 2.15308 12.0012C2.15308 12.2099 2.20893 12.416 2.31661 12.6047C5.00138 17.2852 9.05968 19.6406 14.5 19.6406C19.9432 19.6406 23.9986 17.2852 26.6834 12.6023C26.9015 12.2227 26.9015 11.782 26.6834 11.3953ZM14.3867 16.125C11.634 16.125 9.40235 14.2781 9.40235 12C9.40235 9.72188 11.634 7.875 14.3867 7.875C17.1395 7.875 19.3711 9.72188 19.3711 12C19.3711 14.2781 17.1395 16.125 14.3867 16.125Z" fill="#8B8B8B"/>
</svg>
